<?xml version="1.0" standalone="no"?>
<!DOCTYPE svg PUBLIC "-//W3C//DTD SVG 20010904//EN"
 "http://www.w3.org/TR/2001/REC-SVG-20010904/DTD/svg10.dtd">
<svg version="1.0" xmlns="http://www.w3.org/2000/svg"
 width="300.000000pt" height="300.000000pt" viewBox="0 0 300.000000 300.000000"
 preserveAspectRatio="xMidYMid meet">
<metadata>
Created by potrace 1.10, written by Peter Selinger 2001-2011
</metadata>
<g transform="translate(0.000000,300.000000) scale(0.100000,-0.100000)"
fill="#000000" stroke="none">
<path d="M402 2959 c-56 -32 -104 -94 -122 -159 -14 -49 -13 -2552 0 -2602 28
-100 136 -193 217 -186 l38 3 -72 38 c-80 42 -113 76 -137 139 -15 39 -16 162
-14 1323 l3 1280 22 40 c28 53 55 76 131 114 34 17 62 33 62 36 0 3 -17 5 -37
5 -24 0 -58 -12 -91 -31z"/>
<path d="M2570 2985 c0 -2 21 -18 46 -36 26 -18 52 -46 60 -65 21 -50 21
-2718 0 -2768 -8 -18 -35 -48 -61 -67 -45 -32 -46 -34 -22 -37 35 -4 81 21
109 60 l23 33 3 1385 c2 1334 2 1386 -16 1420 -23 43 -75 80 -113 80 -16 0
-29 -2 -29 -5z"/>
<path d="M604 2899 c-18 -20 -19 -47 -24 -472 -4 -317 -8 -451 -16 -454 -8 -3
-13 125 -18 449 -7 390 -10 455 -23 471 -32 35 -94 10 -141 -57 l-27 -39 -8
-311 c-11 -433 -2 -1967 12 -1993 6 -12 18 -24 27 -27 22 -8 103 21 131 48 21
21 22 27 28 476 4 250 9 457 11 459 1 1 7 0 13 -4 8 -4 11 -147 11 -451 l0
-446 29 -29 30 -29 976 2 977 3 27 31 28 31 6 318 c9 408 9 1281 0 1679 -6
307 -6 308 -31 337 l-24 29 -987 0 -988 0 -19 -21z m1993 -30 c11 -10 13 -213
13 -1165 l0 -1154 -22 -5 c-13 -3 -461 -6 -996 -8 l-972 -2 0 463 c0 300 -4
470 -10 483 -7 13 -21 19 -45 19 -67 0 -65 9 -65 -505 l1 -459 -45 -13 c-25
-7 -48 -18 -51 -23 -3 -6 -9 -10 -13 -10 -4 0 -6 513 -4 1141 2 986 4 1144 17
1169 15 29 73 80 91 80 5 0 8 -190 6 -460 l-3 -460 26 -26 c18 -18 31 -23 48
-19 47 15 47 11 47 504 l0 466 982 -3 c702 -1 985 -5 995 -13z"/>
<path d="M1552 2489 c-64 -12 -130 -48 -181 -99 l-46 -45 -50 13 c-143 37
-311 -45 -386 -189 -34 -66 -38 -194 -9 -271 25 -69 92 -146 154 -179 l46 -24
0 -355 c0 -387 0 -385 57 -409 21 -8 157 -11 496 -9 l467 3 25 26 26 25 -1
361 0 360 30 13 c123 51 212 209 196 347 -9 78 -45 153 -99 207 -51 51 -91 73
-162 92 -63 17 -98 17 -161 1 l-51 -13 -32 38 c-42 50 -111 89 -185 105 -68
14 -74 14 -134 2z m170 -55 c25 -8 74 -39 108 -69 l62 -54 97 6 c119 7 178 -9
245 -68 85 -75 120 -189 92 -298 -21 -81 -62 -140 -129 -184 -29 -20 -60 -43
-68 -53 -11 -14 -15 -83 -17 -370 -3 -368 -3 -370 -47 -374 -11 -1 -221 -2
-467 -1 -392 1 -449 3 -462 17 -14 13 -16 60 -16 361 l0 345 -34 31 c-18 18
-54 49 -80 70 -25 21 -58 59 -73 85 -25 42 -28 56 -28 142 0 79 4 102 23 137
32 60 87 112 150 141 51 23 62 24 159 19 l104 -6 49 44 c51 45 94 72 140 86
43 13 145 10 192 -7z"/>
<path d="M1537 2406 c-57 -21 -103 -56 -138 -103 -33 -47 -46 -50 -109 -28
-141 50 -304 -36 -346 -183 -37 -126 33 -267 161 -322 39 -17 42 -21 49 -65 3
-26 6 -135 6 -241 l0 -193 26 -20 c26 -20 37 -21 430 -21 l403 0 28 24 28 24
5 234 5 233 48 26 c152 82 206 227 136 367 -48 98 -135 152 -241 152 -27 0
-65 -7 -85 -15 -57 -24 -74 -18 -118 38 -70 89 -192 129 -288 93z m197 -60
c26 -15 58 -47 80 -81 42 -63 58 -67 127 -35 55 25 131 25 184 1 50 -22 109
-86 125 -136 20 -61 9 -148 -26 -197 -32 -46 -83 -85 -123 -95 -61 -14 -61
-13 -61 -285 l0 -248 -421 2 -421 3 1 231 c1 131 -2 241 -8 256 -7 19 -23 30
-62 43 -138 46 -197 206 -124 331 61 103 183 141 295 93 61 -26 93 -20 110 21
16 38 89 103 132 118 53 18 142 8 192 -22z"/>
<path d="M1182 1177 c-32 -34 -31 -125 1 -155 23 -22 26 -22 439 -22 393 0
416 1 432 19 35 39 33 124 -4 161 -19 19 -35 20 -433 20 l-414 0 -21 -23z
m858 -77 l0 -60 -422 0 -423 0 0 60 0 60 423 0 422 0 0 -60z"/>
<path d="M521 1743 c-23 -28 -20 -59 7 -80 21 -17 43 -16 70 3 44 30 16 104
-39 104 -10 0 -27 -12 -38 -27z"/>
<path d="M460 438 c-24 -13 -58 -40 -74 -61 -28 -35 -31 -46 -31 -106 0 -58 4
-74 28 -108 15 -22 46 -50 70 -64 l42 -24 938 0 939 0 24 28 c23 27 24 35 24
166 0 125 -2 141 -21 165 l-20 26 -938 0 -937 0 -44 -22z m1920 -170 l0 -153
-948 5 c-892 5 -950 6 -975 23 -95 62 -87 209 13 259 33 17 100 18 973 18
l937 0 0 -152z"/>
<path d="M2482 437 c-21 -22 -22 -33 -22 -168 0 -178 5 -189 85 -189 47 0 56
3 79 31 25 30 26 35 26 168 0 171 -5 181 -89 181 -47 0 -61 -4 -79 -23z m129
-153 c-1 -81 -6 -143 -13 -151 -6 -7 -31 -13 -57 -13 l-46 0 0 150 0 149 55 3
c30 2 57 2 59 1 2 -1 2 -64 2 -139z"/>
</g>
</svg>
